<?xml version="1.0" standalone="no"?>
<!DOCTYPE svg PUBLIC "-//W3C//DTD SVG 20010904//EN"
 "http://www.w3.org/TR/2001/REC-SVG-20010904/DTD/svg10.dtd">
<svg version="1.0" xmlns="http://www.w3.org/2000/svg"
 width="455.000000pt" height="455.000000pt" viewBox="0 0 455.000000 455.000000"
 preserveAspectRatio="xMidYMid meet">
<metadata>
Created by potrace 1.11, written by Peter Selinger 2001-2013
</metadata>
<g transform="translate(0.000000,455.000000) scale(0.100000,-0.100000)"
fill="#000000" stroke="none">
<path d="M3090 2900 c0 -6 -4 -9 -8 -6 -5 3 -21 -4 -38 -15 -16 -10 -26 -19
-21 -19 4 0 -2 -9 -13 -20 -11 -11 -20 -29 -20 -40 0 -11 -4 -20 -10 -20 -5 0
-10 -9 -10 -19 0 -11 -5 -23 -11 -27 -8 -4 -7 -9 2 -15 10 -6 11 -9 2 -9 -7 0
-12 -3 -11 -7 1 -5 -2 -24 -6 -43 -4 -19 -8 -42 -9 -50 -2 -8 -7 -21 -11 -29
-6 -10 -5 -12 2 -7 7 4 12 2 12 -3 0 -6 -4 -11 -8 -11 -5 0 -10 -24 -11 -52
-1 -29 -4 -66 -6 -83 -7 -46 -11 -205 -5 -205 3 0 6 -38 7 -84 1 -47 6 -93 12
-104 8 -15 6 -24 -13 -41 -12 -11 -28 -37 -36 -56 -8 -19 -17 -35 -22 -35 -4
0 -8 -7 -8 -15 0 -8 -5 -15 -12 -15 -6 0 -9 -3 -5 -6 6 -6 -23 -44 -35 -44 -5
0 -17 -9 -28 -20 -12 -12 -25 -18 -30 -15 -6 4 -10 2 -10 -3 0 -13 -69 -13
-93 0 -41 22 -48 34 -28 52 10 9 21 16 25 16 9 0 68 67 66 76 -1 4 4 10 11 14
6 5 13 33 15 63 2 47 -1 60 -22 84 -13 15 -28 29 -34 29 -5 1 -11 2 -12 3 -13
10 -54 8 -76 -3 -29 -15 -81 -66 -67 -66 5 0 0 -7 -11 -16 -10 -8 -12 -12 -4
-8 12 6 13 4 3 -7 -7 -7 -13 -21 -13 -31 0 -10 -4 -18 -10 -18 -5 0 -12 -16
-16 -35 -3 -19 -10 -32 -15 -29 -5 3 -12 -3 -16 -13 -4 -10 -15 -27 -25 -37
-10 -11 -18 -24 -18 -28 0 -5 -4 -6 -10 -3 -5 3 -10 2 -10 -2 0 -12 -56 -44
-64 -36 -3 3 -6 1 -6 -5 0 -8 -21 -12 -60 -12 -36 0 -60 4 -60 11 0 5 -4 8 -9
5 -4 -3 -17 4 -27 15 -18 20 -18 21 1 35 10 8 27 14 38 14 10 0 15 5 12 10 -3
6 4 10 17 10 18 0 20 2 8 10 -12 8 -11 10 8 10 13 0 22 6 22 16 0 8 4 13 10 9
11 -7 37 40 44 78 2 15 8 32 12 38 4 8 3 9 -4 5 -8 -5 -12 2 -12 18 0 14 -5
26 -11 26 -5 0 -8 4 -4 9 3 5 -4 12 -15 16 -11 3 -20 10 -20 14 0 5 -22 9 -50
10 -27 0 -50 -4 -50 -9 0 -6 -3 -9 -7 -8 -5 2 -19 -5 -33 -15 -13 -9 -20 -17
-15 -17 5 0 -1 -7 -13 -16 -12 -8 -22 -22 -22 -30 0 -8 -4 -12 -10 -9 -9 6
-14 -8 -11 -27 0 -5 -3 -8 -9 -8 -5 0 -12 -15 -16 -34 -4 -25 -11 -34 -24 -33
-10 1 -16 6 -12 12 7 11 9 95 13 502 1 202 5 280 13 276 6 -4 5 1 -3 10 -10
13 -11 20 -2 30 6 8 8 17 4 21 -12 12 -12 36 0 36 8 0 9 3 1 8 -6 4 -14 15
-17 26 -6 15 -10 16 -22 6 -12 -10 -15 -10 -16 1 -2 37 -15 -29 -14 -72 1 -28
-4 -49 -10 -49 -5 0 -3 -5 5 -10 11 -7 12 -12 3 -21 -8 -8 -9 -19 -3 -35 7
-17 6 -24 -3 -24 -7 0 -8 -3 -2 -8 14 -10 17 -32 4 -32 -8 0 -8 -4 -1 -13 6
-7 7 -18 2 -27 -4 -7 -4 -24 1 -37 5 -15 5 -23 -2 -23 -6 0 -6 -7 1 -19 5 -11
7 -22 2 -25 -9 -6 -8 -48 2 -64 4 -7 4 -12 -1 -12 -4 0 -8 -78 -8 -173 0 -94
-4 -192 -9 -216 -8 -43 -13 -53 -48 -91 -9 -10 -14 -21 -11 -24 4 -3 1 -6 -6
-6 -7 0 -10 -4 -7 -8 3 -5 -6 -15 -19 -22 -14 -7 -25 -17 -25 -21 0 -4 -27
-21 -61 -39 -34 -17 -58 -26 -54 -19 6 9 4 10 -6 3 -19 -12 -32 -12 -48 0 -11
8 -13 8 -7 -1 4 -8 -6 -6 -26 5 -36 19 -64 42 -51 42 4 0 3 4 -4 8 -7 4 -14
26 -15 49 -2 23 -6 39 -10 36 -5 -2 -8 3 -8 11 0 8 4 17 9 21 6 3 10 13 10 23
-1 40 29 102 48 102 7 0 13 5 13 12 0 6 3 8 7 5 3 -4 12 -2 20 4 8 7 13 8 13
1 0 -5 10 -8 22 -4 14 3 19 2 14 -6 -4 -7 -3 -12 1 -12 13 0 14 -42 1 -57 -12
-15 6 -43 27 -43 15 0 36 23 39 42 1 7 5 18 9 25 11 18 -31 100 -56 109 -41
13 -101 12 -119 -4 -10 -8 -18 -12 -18 -7 0 4 -14 -10 -31 -31 -31 -39 -54
-82 -51 -96 1 -5 -2 -8 -8 -8 -5 0 -6 -7 -3 -17 4 -11 3 -14 -5 -9 -7 4 -12 1
-12 -9 0 -9 -9 -29 -20 -45 -11 -15 -17 -30 -13 -34 3 -3 -1 -6 -10 -6 -10 0
-16 -3 -15 -7 3 -15 -14 -43 -23 -37 -5 3 -9 1 -9 -5 0 -6 -9 -15 -21 -21 -28
-16 -79 -21 -79 -10 0 6 -6 10 -13 10 -26 0 -41 71 -39 188 l3 112 -32 0 c-18
0 -29 -3 -26 -7 4 -3 1 -13 -6 -21 -10 -13 -9 -14 2 -7 10 6 12 4 5 -6 -4 -8
-9 -32 -11 -54 -5 -89 -25 -144 -66 -185 -31 -32 -42 -38 -53 -29 -11 9 -14 8
-14 -2 -1 -8 -10 -3 -24 13 -13 15 -26 25 -28 22 -3 -2 -5 24 -6 59 -1 63 31
177 50 177 5 0 6 5 3 10 -3 6 -1 10 5 10 17 0 -17 43 -36 46 -9 1 -13 0 -10
-3 3 -3 -3 -13 -13 -22 -11 -9 -27 -38 -37 -66 -9 -27 -23 -57 -31 -66 -7 -8
-13 -21 -13 -28 0 -6 -22 -33 -49 -60 -42 -41 -53 -47 -80 -43 -17 2 -28 8
-25 13 3 5 -1 6 -9 3 -24 -9 -47 35 -47 89 0 26 -7 61 -15 77 -9 17 -12 30 -8
30 4 0 -10 16 -32 35 -21 20 -44 34 -51 31 -7 -3 -14 0 -16 6 -3 7 -9 8 -19 3
-8 -5 -23 -11 -34 -12 -11 -2 -23 -10 -28 -18 -4 -9 -12 -13 -16 -11 -9 6 -9
1 -12 -66 -2 -32 3 -51 14 -63 10 -9 17 -21 17 -26 0 -5 13 -8 30 -7 36 3 40
26 10 67 -17 25 -18 30 -4 49 9 14 24 21 39 20 13 -1 22 -4 20 -7 -3 -2 2 -9
10 -15 9 -6 18 -22 21 -36 11 -49 6 -150 -8 -150 -4 0 -8 -10 -8 -22 0 -12 -3
-19 -6 -16 -3 3 -19 -7 -35 -23 -39 -38 -80 -39 -115 -1 -32 34 -68 112 -52
112 9 0 9 3 0 12 -15 15 -16 68 -1 68 6 0 9 7 5 15 -3 8 0 15 6 15 6 0 8 3 5
7 -4 3 0 15 10 25 9 10 13 18 9 18 -3 0 1 14 10 31 16 32 25 62 27 91 1 9 4
15 7 13 3 -2 10 8 17 21 6 13 7 21 2 18 -5 -3 0 11 11 30 11 20 17 36 14 36
-4 0 -1 7 6 15 8 10 9 15 1 15 -6 0 -2 15 9 36 11 19 15 32 9 28 -8 -5 -9 -3
-3 7 9 14 13 29 16 62 1 9 5 17 9 17 3 0 7 21 8 47 1 26 6 50 12 54 8 5 8 8 0
13 -8 5 -8 13 -1 27 7 12 7 19 1 19 -7 0 -7 9 -1 25 5 13 6 26 2 29 -5 3 -9
26 -11 53 -1 26 -6 50 -12 51 -5 2 -9 15 -9 28 0 14 -4 22 -10 19 -5 -3 -10
-1 -10 6 0 6 -10 20 -22 31 -33 28 -95 19 -126 -19 -12 -15 -27 -34 -33 -40
-5 -7 -7 -13 -4 -13 3 0 1 -8 -4 -18 -6 -11 -12 -30 -15 -43 -3 -13 -7 -35
-11 -49 -3 -14 -6 -42 -7 -63 -1 -21 -5 -40 -9 -42 -12 -8 -9 -527 3 -542 8
-9 7 -13 -2 -13 -9 0 -9 -4 -2 -12 5 -7 12 -38 15 -68 2 -30 11 -75 18 -100
15 -51 63 -133 73 -123 3 3 6 -2 6 -12 0 -10 3 -15 6 -12 4 3 16 1 28 -5 26
-15 31 -16 85 -6 33 6 54 19 87 53 24 24 44 49 44 55 0 6 9 5 25 -2 14 -6 25
-15 25 -20 0 -5 8 -8 18 -6 11 2 27 -4 37 -12 11 -9 16 -10 11 -2 -5 8 -1 12
11 13 44 3 70 15 106 47 15 14 28 23 28 19 1 -4 2 -10 3 -14 10 -58 57 -102
113 -107 45 -4 81 13 121 55 l29 31 18 -29 c23 -35 45 -52 68 -53 9 0 17 -3
17 -7 0 -5 11 -8 25 -8 14 0 25 2 25 5 0 3 9 6 20 7 11 1 26 8 34 15 7 7 27
24 44 37 17 13 30 26 28 30 -2 3 7 14 20 24 14 10 23 15 22 10 -6 -17 28 -79
56 -106 29 -25 69 -41 106 -41 8 0 18 -5 22 -11 5 -6 8 -6 8 0 0 6 14 11 31
12 55 4 148 57 162 93 3 10 6 11 6 2 1 -10 4 -10 15 0 8 7 12 16 9 21 -2 4 3
7 12 7 9 0 13 5 10 10 -3 6 -1 10 4 10 7 0 10 -22 10 -55 -2 -86 34 -113 71
-52 11 17 20 40 20 50 0 9 4 17 10 17 5 0 7 7 4 15 -4 8 0 23 7 32 8 9 13 18
12 20 -8 10 -2 33 7 28 6 -4 10 5 10 20 0 15 4 24 10 20 6 -3 10 3 10 14 0 10
21 42 48 69 41 43 51 49 79 45 24 -4 30 -9 26 -21 -4 -10 -2 -13 5 -8 14 8 11
-14 -5 -54 -10 -24 -53 -70 -53 -57 0 4 -9 -1 -20 -11 -20 -17 -24 -18 -55
-21 -24 -2 -45 -43 -37 -73 9 -32 43 -78 59 -78 6 0 13 -5 15 -10 2 -6 14 -12
28 -15 92 -18 93 -18 85 -4 -6 11 -5 11 5 2 9 -8 19 -9 32 -2 10 5 24 7 30 3
7 -4 8 -3 4 4 -4 8 0 12 12 12 10 0 28 9 40 20 12 12 22 18 22 15 0 -3 17 14
38 37 50 58 56 61 67 35 5 -12 14 -25 19 -28 4 -4 5 -13 1 -20 -5 -8 -5 -11 0
-7 4 4 21 -6 37 -22 15 -17 33 -30 38 -30 6 0 10 -4 10 -9 0 -5 9 -7 20 -4 11
3 20 1 20 -4 0 -5 12 -8 28 -7 15 1 27 3 27 4 0 1 12 3 27 4 15 0 32 6 39 13
6 6 18 9 27 6 8 -4 13 -2 9 3 -3 5 7 18 22 28 15 11 36 32 47 47 10 15 22 25
28 22 5 -3 6 -2 3 4 -3 5 5 27 18 49 21 33 31 33 26 2 0 -5 4 -8 10 -8 6 0 9
-6 6 -14 -3 -8 1 -20 9 -26 8 -7 14 -20 14 -29 1 -16 30 -54 62 -79 13 -11 41
-19 77 -24 22 -2 43 5 74 26 19 13 38 22 40 19 3 -2 8 5 12 16 3 12 13 21 20
21 9 0 12 6 8 17 -4 10 -2 14 4 10 6 -4 14 1 18 10 5 14 10 8 25 -25 17 -38
70 -103 70 -86 0 4 8 0 18 -8 15 -14 24 -14 66 -3 26 7 52 19 57 26 5 8 9 10
9 5 0 -5 8 1 19 12 10 12 22 18 26 14 5 -4 5 -2 1 5 -3 6 4 19 16 27 12 9 18
16 13 16 -5 0 0 7 11 15 10 8 15 15 10 15 -5 0 1 9 14 20 13 11 20 20 15 20
-4 0 -3 6 3 13 15 18 66 111 63 115 -2 2 0 6 2 8 3 3 13 -13 23 -35 10 -23 21
-41 26 -41 4 0 7 -3 7 -7 -4 -23 2 -53 9 -49 12 7 7 -24 -8 -56 -7 -16 -20
-29 -29 -30 -9 0 -23 -2 -31 -3 -8 -1 -27 5 -41 13 -33 18 -59 10 -54 -16 5
-29 28 -62 42 -62 6 0 18 -6 25 -12 19 -18 34 -21 109 -20 51 0 78 6 118 26
28 15 51 30 51 34 0 5 11 15 25 22 14 7 25 19 25 27 0 7 4 13 8 13 5 0 15 11
22 25 16 30 40 33 40 5 0 -11 5 -20 10 -20 6 0 10 -5 10 -10 0 -6 17 -28 38
-49 27 -28 50 -42 85 -49 29 -6 47 -6 47 0 0 5 5 6 10 3 14 -9 107 65 114 90
3 11 6 45 6 75 l0 55 -16 -32 c-9 -18 -20 -33 -25 -33 -5 0 -9 -6 -9 -13 0
-15 -61 -73 -72 -69 -5 1 -8 -2 -8 -7 0 -11 -48 -5 -64 8 -7 6 -16 8 -19 4 -4
-3 -7 -2 -7 3 0 6 -9 20 -20 32 -12 12 -18 22 -14 22 3 0 -1 10 -9 23 -25 38
-27 82 -6 116 10 17 19 38 19 47 0 8 5 12 10 9 6 -3 10 2 10 11 0 25 33 128
42 132 5 2 6 8 3 12 -3 5 1 27 9 49 7 22 9 38 4 35 -6 -4 -6 1 0 12 6 11 10
22 11 27 1 4 1 8 2 10 1 1 2 14 3 29 0 14 4 29 8 33 3 4 4 18 2 33 -8 44 3 67
32 70 15 1 34 -4 42 -10 11 -9 14 -9 9 -1 -5 8 3 11 25 10 30 -2 33 0 33 28
l0 29 -74 -2 c-63 -2 -73 -1 -68 13 4 8 3 15 -1 15 -7 0 -11 16 -14 57 -1 7
-5 10 -9 8 -4 -3 -9 2 -13 10 -3 8 -12 15 -20 15 -8 0 -16 6 -19 13 -10 32
-117 -58 -117 -100 0 -12 -8 -24 -17 -27 -10 -3 -83 -5 -161 -4 -114 1 -146
-2 -153 -13 -13 -20 -6 -34 19 -37 13 -2 19 -8 16 -14 -5 -7 -2 -8 7 -2 21 13
209 13 209 0 0 -7 3 -7 8 -1 4 6 16 11 27 13 18 2 20 -2 16 -50 -1 -29 -7 -58
-13 -65 -6 -7 -5 -14 2 -18 6 -3 7 -12 3 -18 -13 -19 -12 -221 1 -229 8 -6 8
-8 -1 -8 -6 0 -10 -8 -8 -17 2 -10 4 -18 5 -18 2 0 6 -37 12 -105 3 -30 -2
-63 -8 -57 -4 4 -16 -11 -26 -33 -11 -22 -25 -37 -31 -33 -5 3 -7 2 -4 -4 7
-11 -46 -63 -63 -63 -5 0 -10 -4 -10 -10 0 -5 -9 -10 -20 -10 -11 0 -20 -4
-20 -8 0 -4 -11 -9 -25 -10 -29 -2 -31 7 -7 34 20 23 23 34 22 83 -1 68 -1 71
-11 66 -5 -4 -9 1 -9 9 0 15 -30 86 -40 96 -10 10 -48 90 -40 85 15 -9 9 75
-6 90 -28 28 -52 19 -61 -22 -4 -21 -6 -42 -4 -48 2 -5 3 -26 1 -45 -1 -19 -2
-40 -3 -47 0 -7 -4 -10 -9 -7 -4 3 -8 0 -8 -5 0 -22 -2 -26 -15 -41 -7 -8 -16
-25 -19 -37 -4 -13 -12 -23 -17 -23 -5 0 -8 -3 -7 -7 5 -14 -45 -87 -82 -121
-44 -42 -75 -55 -99 -42 -10 5 -21 6 -25 3 -3 -3 -6 1 -6 10 0 10 -5 17 -11
17 -5 0 -8 4 -5 9 3 4 -1 17 -8 27 -10 13 -11 24 -4 38 7 13 7 16 -1 12 -6 -4
-11 -3 -11 3 0 5 5 13 10 16 7 5 8 11 1 19 -6 7 -6 17 -1 26 5 9 5 19 -2 27
-6 8 -7 18 -1 26 5 6 10 38 12 71 3 58 -5 75 -36 76 -18 0 -35 -60 -36 -127 0
-34 -3 -60 -7 -58 -4 2 -13 -11 -20 -30 -8 -19 -18 -35 -22 -35 -5 0 -6 -4 -3
-10 3 -5 1 -10 -4 -10 -6 0 -11 -4 -11 -10 0 -13 -60 -75 -86 -88 -34 -18
-104 6 -104 35 0 7 -4 13 -10 13 -5 0 -9 3 -8 8 1 4 -3 17 -10 28 -6 12 -8 24
-5 28 3 3 1 6 -5 6 -7 0 -12 15 -12 34 0 19 -4 36 -9 38 -6 2 12 47 40 101 27
54 49 105 49 113 0 8 4 14 8 14 5 0 9 6 10 13 0 6 14 50 31 96 17 46 28 88 25
92 -2 4 0 10 6 14 5 3 10 20 10 36 0 17 4 28 8 25 8 -5 9 5 12 79 1 19 6 32
11 29 5 -3 9 0 9 5 0 6 -3 11 -7 11 -5 0 -8 11 -8 25 0 14 4 25 9 25 5 0 3 7
-4 15 -10 12 -10 15 1 15 11 0 11 2 -1 10 -8 5 -10 10 -5 10 6 0 10 11 10 24
0 13 -3 22 -6 20 -4 -2 -7 6 -7 19 -3 64 -37 125 -74 131 -7 1 -19 5 -25 9 -8
5 -13 3 -13 -3z m-2655 -80 c4 -11 11 -17 17 -14 7 5 9 0 6 -14 -3 -12 -2 -22
4 -24 11 -4 14 -176 4 -228 -4 -19 -8 -44 -8 -55 -1 -11 -5 -22 -9 -25 -4 -3
-9 -23 -11 -45 -2 -22 -7 -45 -10 -50 -3 -6 -9 -26 -13 -45 -4 -19 -11 -40
-16 -46 -5 -6 -10 -23 -11 -38 -1 -14 -6 -26 -10 -26 -4 0 -8 -9 -8 -20 0 -11
-5 -20 -11 -20 -5 0 -8 -4 -5 -8 2 -4 -3 -26 -13 -47 -16 -35 -18 -37 -19 -15
-2 33 -6 52 -15 67 -6 9 -3 11 9 6 13 -5 15 -3 8 8 -4 8 -7 22 -5 33 1 11 -2
16 -8 12 -6 -4 -11 -2 -11 3 0 6 4 11 9 11 5 0 8 11 5 25 -3 16 0 25 8 25 9 0
10 3 2 8 -6 4 -10 25 -10 47 1 22 -2 48 -7 59 -5 11 -5 16 0 13 8 -5 11 23 16
156 0 15 4 27 9 27 4 0 8 5 8 11 0 5 -6 7 -12 3 -10 -6 -10 -5 -1 7 7 8 12 26
12 39 1 52 3 60 12 60 5 0 9 6 7 13 -3 20 13 60 35 85 25 27 34 28 42 2z
m2682 4 c7 -7 15 -25 19 -40 8 -40 12 -214 4 -219 -4 -2 -8 -21 -9 -42 -1 -21
-3 -44 -3 -50 -1 -7 -5 -13 -10 -13 -4 0 -8 -10 -8 -23 0 -13 -6 -29 -12 -36
-10 -10 -10 -12 -1 -7 8 4 7 -2 -2 -21 -8 -15 -15 -41 -15 -56 0 -16 -4 -26
-8 -23 -5 3 -14 -17 -21 -44 -7 -28 -17 -50 -23 -50 -6 0 -8 -6 -5 -14 3 -8 2
-16 -3 -18 -5 -2 -10 -10 -12 -18 -3 -15 -17 -30 -29 -30 -3 0 -5 72 -5 160 1
88 5 160 10 160 5 0 3 7 -4 15 -9 11 -9 19 -2 28 6 7 12 34 13 60 2 26 8 47
13 47 6 0 4 5 -4 10 -11 7 -11 10 -2 10 7 0 11 4 8 9 -3 4 -1 23 4 42 6 19 13
47 16 63 5 31 29 81 48 102 13 14 26 14 43 -2z m1094 -232 c6 -31 5 -32 -27
-32 -19 0 -34 5 -34 10 0 6 5 10 11 10 5 0 7 5 4 10 -8 13 14 42 29 37 6 -2
13 -18 17 -35z m-1 -98 c0 -7 6 -15 13 -17 9 -4 9 -8 1 -14 -7 -4 -11 -17 -11
-28 0 -11 -3 -51 -8 -90 -5 -38 -8 -73 -7 -77 1 -5 -2 -8 -6 -8 -4 0 -9 -12
-10 -26 -1 -14 -5 -31 -9 -37 -4 -7 -8 -20 -9 -29 -3 -36 -4 -39 -13 -34 -5 4
-7 -3 -4 -14 3 -11 0 -20 -6 -20 -6 0 -11 -9 -11 -20 0 -11 -4 -20 -10 -20
-11 0 -13 55 -10 230 3 163 3 160 12 160 4 0 7 3 7 8 -6 38 2 48 41 48 26 0
40 -4 40 -12z m-1549 -472 c11 -56 -65 -155 -102 -131 -7 5 -10 9 -6 9 4 0 3
9 -3 20 -6 11 -7 20 -2 20 5 0 8 10 8 23 -4 46 36 97 74 94 19 -2 26 -9 31
-35z"/>
<path d="M3323 2414 c-36 -40 -25 -114 16 -114 6 0 11 -4 11 -9 0 -16 52 -5
65 12 7 9 15 14 18 10 4 -3 8 7 8 23 2 41 -1 59 -12 62 -5 2 -7 8 -3 13 3 5
-4 9 -15 9 -10 0 -21 6 -24 13 -3 9 -7 9 -19 -1 -10 -8 -17 -9 -20 -3 -1 6
-13 -1 -25 -15z m71 -65 c-3 -5 -14 -9 -25 -9 -21 0 -27 35 -6 43 14 5 39 -22
31 -34z"/>
</g>
</svg>
